{
  "accessors": [
    {
      "bufferView": 2,
      "componentType": 5126,
      "count": 56,
      "max": [
        14.26912784576416,
        8.1617965698242188,
        -1.7980130910873413
      ],
      "min": [
        -13.785656929016113,
        -7.5778031349182129,
        -2.874420166015625
      ],
      "type": "VEC3"
    },
    {
      "bufferView": 2,
      "byteOffset": 672,
      "componentType": 5126,
      "count": 56,
      "max": [
        2.6925219831497316e-09,
        0.17122094333171844,
        0.99357032775878906
      ],
      "min": [
        -1.3595975012492545e-08,
        -0.12297967821359634,
        0.98523271083831787
      ],
      "type": "VEC3"
    },
    {
      "bufferView": 3,
      "componentType": 5126,
      "count": 56,
      "max": [
        1,
        1.7621887593577412e-07,
        2.5082753651872736e-08,
        1
      ],
      "min": [
        1,
        -2.6843829914469097e-07,
        -3.0624605074081046e-08,
        -1
      ],
      "type": "VEC4"
    },
    {
      "bufferView": 1,
      "componentType": 5126,
      "count": 56,
      "max": [
        0.9892125129699707,
        0.97997057437896729
      ],
      "min": [
        0.0058692097663879395,
        0.28943213820457458
      ],
      "type": "VEC2"
    },
    {
      "bufferView": 0,
      "componentType": 5125,
      "count": 84,
      "max": [
        55
      ],
      "min": [
        0
      ],
      "type": "SCALAR"
    },
    {
      "bufferView": 2,
      "byteOffset": 1344,
      "componentType": 5126,
      "count": 1677,
      "max": [
        26.666553497314453,
        19.531169891357422,
        2.1941428184509277
      ],
      "min": [
        -3.6910731792449951,
        -1.3444151878356934,
        -11.030279159545898
      ],
      "type": "VEC3"
    },
    {
      "bufferView": 2,
      "byteOffset": 21468,
      "componentType": 5126,
      "count": 1677,
      "max": [
        0.99998939037322998,
        1,
        1
      ],
      "min": [
        -0.99998939037322998,
        -1,
        -1
      ],
      "type": "VEC3"
    },
    {
      "bufferView": 3,
      "byteOffset": 896,
      "componentType": 5126,
      "count": 1677,
      "max": [
        0.99999105930328369,
        1,
        1,
        1
      ],
      "min": [
        -0.9999963641166687,
        -1,
        -1,
        1
      ],
      "type": "VEC4"
    },
    {
      "bufferView": 1,
      "byteOffset": 448,
      "componentType": 5126,
      "count": 1677,
      "max": [
        0.98882871866226196,
        0.94309824705123901
      ],
      "min": [
        0.011171316727995872,
        0.011171316727995872
      ],
      "type": "VEC2"
    },
    {
      "bufferView": 0,
      "byteOffset": 336,
      "componentType": 5125,
      "count": 6996,
      "max": [
        1676
      ],
      "min": [
        0
      ],
      "type": "SCALAR"
    },
    {
      "bufferView": 2,
      "byteOffset": 41592,
      "componentType": 5126,
      "count": 3367,
      "max": [
        24.442949295043945,
        10.424479484558105,
        2.1275908946990967
      ],
      "min": [
        -6.3538193702697754,
        -4.733241081237793,
        -8.5256814956665039
      ],
      "type": "VEC3"
    },
    {
      "bufferView": 2,
      "byteOffset": 81996,
      "componentType": 5126,
      "count": 3367,
      "max": [
        1,
        0.99374902248382568,
        1
      ],
      "min": [
        -1,
        -0.99374562501907349,
        -1
      ],
      "type": "VEC3"
    },
    {
      "bufferView": 3,
      "byteOffset": 27728,
      "componentType": 5126,
      "count": 3367,
      "max": [
        1,
        0.99998486042022705,
        0.99545413255691528,
        1
      ],
      "min": [
        -1,
        -0.99999988079071045,
        -0.99922370910644531,
        1
      ],
      "type": "VEC4"
    },
    {
      "bufferView": 1,
      "byteOffset": 13864,
      "componentType": 5126,
      "count": 3367,
      "max": [
        0.99549376964569092,
        0.98088294267654419
      ],
      "min": [
        0.0045061875134706497,
        0.0045061875134706497
      ],
      "type": "VEC2"
    },
    {
      "bufferView": 0,
      "byteOffset": 28320,
      "componentType": 5125,
      "count": 14925,
      "max": [
        3366
      ],
      "min": [
        0
      ],
      "type": "SCALAR"
    }
  ],
  "asset": {
    "extras": {
      "author": "gorzi (https://sketchfab.com/gorzi90)",
      "license": "CC-BY-4.0 (http://creativecommons.org/licenses/by/4.0/)",
      "source": "https://sketchfab.com/3d-models/old-radio-60279aff8aae432a9933b9fb6374c2f1",
      "title": "Old Radio"
    },
    "generator": "Sketchfab-9.52.0",
    "version": "2.0"
  },
  "bufferViews": [
    {
      "buffer": 0,
      "byteLength": 88020,
      "byteOffset": 0,
      "name": "floatBufferViews",
      "target": 34963
    },
    {
      "buffer": 0,
      "byteLength": 40800,
      "byteOffset": 88020,
      "byteStride": 8,
      "name": "floatBufferViews",
      "target": 34962
    },
    {
      "buffer": 0,
      "byteLength": 122400,
      "byteOffset": 128820,
      "byteStride": 12,
      "name": "floatBufferViews",
      "target": 34962
    },
    {
      "buffer": 0,
      "byteLength": 81600,
      "byteOffset": 251220,
      "byteStride": 16,
      "name": "floatBufferViews",
      "target": 34962
    }
  ],
  "buffers": [
    {
      "byteLength": 332820,
      "uri": "scene.bin"
    }
  ],
  "images": [
    {
      "uri": "textures/front_baseColor.png"
    },
    {
      "uri": "textures/front_metallicRoughness.png"
    },
    {
      "uri": "textures/front_normal.png"
    },
    {
      "uri": "textures/base_baseColor.png"
    },
    {
      "uri": "textures/base_metallicRoughness.png"
    },
    {
      "uri": "textures/base_normal.png"
    },
    {
      "uri": "textures/others_baseColor.png"
    },
    {
      "uri": "textures/others_metallicRoughness.png"
    },
    {
      "uri": "textures/others_normal.png"
    }
  ],
  "materials": [
    {
      "doubleSided": true,
      "emissiveFactor": [
        0,
        0,
        0
      ],
      "name": "front",
      "normalTexture": {
        "index": 2,
        "scale": 1,
        "texCoord": 0
      },
      "pbrMetallicRoughness": {
        "baseColorFactor": [
          1,
          1,
          1,
          1
        ],
        "baseColorTexture": {
          "index": 0,
          "texCoord": 0
        },
        "metallicFactor": 1,
        "metallicRoughnessTexture": {
          "index": 1,
          "texCoord": 0
        },
        "roughnessFactor": 1
      }
    },
    {
      "doubleSided": true,
      "emissiveFactor": [
        0,
        0,
        0
      ],
      "name": "base",
      "normalTexture": {
        "index": 5,
        "scale": 1,
        "texCoord": 0
      },
      "pbrMetallicRoughness": {
        "baseColorFactor": [
          1,
          1,
          1,
          1
        ],
        "baseColorTexture": {
          "index": 3,
          "texCoord": 0
        },
        "metallicFactor": 1,
        "metallicRoughnessTexture": {
          "index": 4,
          "texCoord": 0
        },
        "roughnessFactor": 1
      }
    },
    {
      "doubleSided": true,
      "emissiveFactor": [
        0,
        0,
        0
      ],
      "name": "others",
      "normalTexture": {
        "index": 8,
        "scale": 1,
        "texCoord": 0
      },
      "pbrMetallicRoughness": {
        "baseColorFactor": [
          1,
          1,
          1,
          1
        ],
        "baseColorTexture": {
          "index": 6,
          "texCoord": 0
        },
        "metallicFactor": 1,
        "metallicRoughnessTexture": {
          "index": 7,
          "texCoord": 0
        },
        "roughnessFactor": 1
      }
    }
  ],
  "meshes": [
    {
      "primitives": [
        {
          "attributes": {
            "NORMAL": 1,
            "POSITION": 0,
            "TANGENT": 2,
            "TEXCOORD_0": 3
          },
          "indices": 4,
          "material": 0,
          "mode": 4
        }
      ]
    },
    {
      "primitives": [
        {
          "attributes": {
            "NORMAL": 6,
            "POSITION": 5,
            "TANGENT": 7,
            "TEXCOORD_0": 8
          },
          "indices": 9,
          "material": 1,
          "mode": 4
        }
      ]
    },
    {
      "primitives": [
        {
          "attributes": {
            "NORMAL": 11,
            "POSITION": 10,
            "TANGENT": 12,
            "TEXCOORD_0": 13
          },
          "indices": 14,
          "material": 2,
          "mode": 4
        }
      ]
    }
  ],
  "nodes": [
    {
      "children": [
        1
      ],
      "name": "RootNode (gltf orientation matrix)",
      "rotation": [
        -0.70710678118654746,
        -0,
        -0,
        0.70710678118654757
      ]
    },
    {
      "children": [
        2
      ],
      "name": "RootNode (model correction matrix)"
    },
    {
      "children": [
        3
      ],
      "name": "root"
    },
    {
      "children": [
        4,
        6,
        8
      ],
      "matrix": [
        1,
        0,
        0,
        0,
        0,
        2.2204460492503131e-16,
        1,
        0,
        0,
        -1,
        2.2204460492503131e-16,
        0,
        0,
        0,
        0,
        1
      ],
      "name": "GLTF_SceneRootNode"
    },
    {
      "children": [
        5
      ],
      "name": "front_0"
    },
    {
      "mesh": 0,
      "name": ""
    },
    {
      "children": [
        7
      ],
      "matrix": [
        1,
        0,
        0,
        0,
        0,
        1,
        0,
        0,
        0,
        0,
        1,
        0,
        -11.487738609313965,
        -9.5978002548217773,
        -2.1602554321289062,
        1
      ],
      "name": "base_1"
    },
    {
      "mesh": 1,
      "name": ""
    },
    {
      "children": [
        9
      ],
      "matrix": [
        1,
        0,
        0,
        0,
        0,
        1,
        0,
        0,
        0,
        0,
        1,
        0,
        -9.0445661544799805,
        -4.3535027503967285,
        -2.3273863792419434,
        1
      ],
      "name": "other_2"
    },
    {
      "mesh": 2,
      "name": ""
    }
  ],
  "samplers": [
    {
      "magFilter": 9729,
      "minFilter": 9987,
      "wrapS": 10497,
      "wrapT": 10497
    }
  ],
  "scene": 0,
  "scenes": [
    {
      "name": "OSG_Scene",
      "nodes": [
        0
      ]
    }
  ],
  "textures": [
    {
      "sampler": 0,
      "source": 0
    },
    {
      "sampler": 0,
      "source": 1
    },
    {
      "sampler": 0,
      "source": 2
    },
    {
      "sampler": 0,
      "source": 3
    },
    {
      "sampler": 0,
      "source": 4
    },
    {
      "sampler": 0,
      "source": 5
    },
    {
      "sampler": 0,
      "source": 6
    },
    {
      "sampler": 0,
      "source": 7
    },
    {
      "sampler": 0,
      "source": 8
    }
  ]
}

